<svg xmlns="http://www.w3.org/2000/svg" viewBox="0 0 1200 300" width="1200" height="300" role="img" aria-label="Book XV. The Book of the Hellenes. Ithaca is the first thing he built, still running, which he forgot to turn off.">
  <defs>
    <radialGradient id="sky" cx="16%" cy="50%" r="95%">
      <stop offset="0" stop-color="#7cc4ff" stop-opacity="0.26"/>
      <stop offset="0.25" stop-color="#7cc4ff" stop-opacity="0.1"/>
      <stop offset="0.6" stop-color="#7cc4ff" stop-opacity="0"/>
    </radialGradient>
    <radialGradient id="halo" cx="50%" cy="50%" r="50%">
      <stop offset="0" stop-color="#ffd27a" stop-opacity="0.5"/>
      <stop offset="1" stop-color="#e0a940" stop-opacity="0"/>
    </radialGradient>
    <linearGradient id="gold" x1="0" y1="0" x2="0" y2="1">
      <stop offset="0" stop-color="#fff1c4"/>
      <stop offset="0.5" stop-color="#e8c069"/>
      <stop offset="1" stop-color="#a8792a"/>
    </linearGradient>
    <filter id="glow" x="-50%" y="-50%" width="200%" height="200%">
      <feGaussianBlur stdDeviation="3" result="b"/>
      <feMerge><feMergeNode in="b"/><feMergeNode in="SourceGraphic"/></feMerge>
    </filter>
    <style>
      .spin { transform-box: fill-box; transform-origin: center; animation: turn 30s linear infinite; }
      .rev { animation-direction: reverse; }
      .pulse { animation: pulse 4s ease-in-out infinite; }
      .blink { animation: blink 2.6s steps(2, jump-none) infinite; }
      .flutter { transform-box: fill-box; transform-origin: center; animation: flutter 3.2s ease-in-out infinite; }
      .pkt { fill: none; stroke-width: 2.6; stroke-linecap: round; stroke-dasharray: 10 400; animation: run 4.5s linear infinite; }
      .trace { fill: none; stroke-width: 2.4; stroke-linecap: round; stroke-dasharray: 14 900; animation: trace 7s linear infinite; }
      .flicker { transform-box: fill-box; transform-origin: bottom; animation: flicker 1.8s ease-in-out infinite; }
      .tilt { transform-box: view-box; transform-origin: 190px 62px; animation: tilt 6s ease-in-out infinite; }
      .star { fill: #fff3d0; animation: pulse 3s ease-in-out infinite; }
      @keyframes turn { to { transform: rotate(360deg); } }
      @keyframes pulse { 0%,100% { opacity: 0.45; } 50% { opacity: 1; } }
      @keyframes blink { 0% { opacity: 1; } 100% { opacity: 0.15; } }
      @keyframes flutter { 0%,100% { transform: scaleX(1); } 50% { transform: scaleX(0.82); } }
      @keyframes flicker { 0%,100% { transform: scale(1, 1); } 40% { transform: scale(0.94, 1.06); } 70% { transform: scale(1.04, 0.95); } }
      @keyframes tilt { 0%,100% { transform: rotate(-4deg); } 50% { transform: rotate(3deg); } }
      @keyframes run { from { stroke-dashoffset: 410; } to { stroke-dashoffset: 0; } }
      @keyframes trace { from { stroke-dashoffset: 914; } to { stroke-dashoffset: 0; } }
      @media (prefers-reduced-motion: reduce) { * { animation: none !important; } }
    </style>
  </defs>

  <rect width="1200" height="300" fill="#0a0914"/>
  <rect width="1200" height="300" fill="url(#sky)"/>
  <rect x="8" y="8" width="1184" height="284" rx="10" fill="none" stroke="#e8c069" stroke-opacity="0.35"/>
  <rect x="16" y="16" width="1168" height="268" rx="6" fill="none" stroke="#e8c069" stroke-opacity="0.15"/>
  <circle class="star" cx="509" cy="97" r="0.8" style="animation-delay:-0.0s"/>
  <circle class="star" cx="720" cy="164" r="1.1" style="animation-delay:-0.7s"/>
  <circle class="star" cx="931" cy="231" r="1.4" style="animation-delay:-1.4s"/>
  <circle class="star" cx="382" cy="68" r="0.8" style="animation-delay:-2.1s"/>
  <circle class="star" cx="593" cy="135" r="1.1" style="animation-delay:-2.8s"/>
  <circle class="star" cx="804" cy="202" r="1.4" style="animation-delay:-3.5s"/>
  <circle class="star" cx="1015" cy="39" r="0.8" style="animation-delay:-4.2s"/>
  <circle class="star" cx="466" cy="106" r="1.1" style="animation-delay:-4.9s"/>
  <circle class="star" cx="677" cy="173" r="1.4" style="animation-delay:-5.6s"/>

  <path d="M360 262 H1160" stroke="#e8c069" stroke-opacity="0.25"/>
  <path class="trace" d="M360 262 H1160" stroke="#7cc4ff" filter="url(#glow)"/>

  <g transform="translate(190 150)">
    <g fill="none" stroke="url(#gold)" stroke-width="2.5">
      <path d="M-46 -78 H46 L38 -66 H-38 Z"/>
      <path d="M-30 -66 V74 M30 -66 V74"/>
      <path d="M-40 74 H40 V86 H-40 Z"/>
    </g>
    <g stroke="#e8c069" stroke-opacity="0.45" stroke-width="1.5"><line x1="-18" y1="-60" x2="-18" y2="70"/><line x1="-6" y1="-60" x2="-6" y2="70"/><line x1="6" y1="-60" x2="6" y2="70"/><line x1="18" y1="-60" x2="18" y2="70"/></g>
    <g fill="#7cc4ff" fill-opacity="0.75">
      <ellipse cx="-36.00000000000001" cy="-58.35382907247958" rx="9" ry="4" transform="rotate(0 -36.00000000000001 -58.35382907247958)"/><ellipse cx="36.00000000000001" cy="-58.35382907247958" rx="9" ry="4" transform="rotate(0 36.00000000000001 -58.35382907247958)"/><ellipse cx="-53.506427434372384" cy="-44.17740365783779" rx="9" ry="4" transform="rotate(-18 -53.506427434372384 -44.17740365783779)"/><ellipse cx="53.506427434372384" cy="-44.17740365783779" rx="9" ry="4" transform="rotate(18 53.506427434372384 -44.17740365783779)"/><ellipse cx="-65.77527295026727" cy="-25.285038301457615" rx="9" ry="4" transform="rotate(-36 -65.77527295026727 -25.285038301457615)"/><ellipse cx="65.77527295026727" cy="-25.285038301457615" rx="9" ry="4" transform="rotate(36 65.77527295026727 -25.285038301457615)"/><ellipse cx="-71.60557646651567" cy="-3.5260493552710503" rx="9" ry="4" transform="rotate(-54 -71.60557646651567 -3.5260493552710503)"/><ellipse cx="71.60557646651567" cy="-3.5260493552710503" rx="9" ry="4" transform="rotate(54 71.60557646651567 -3.5260493552710503)"/><ellipse cx="-70.42662725283401" cy="18.96964173887867" rx="9" ry="4" transform="rotate(-72 -70.42662725283401 18.96964173887867)"/><ellipse cx="70.42662725283401" cy="18.96964173887867" rx="9" ry="4" transform="rotate(72 70.42662725283401 18.96964173887867)"/><ellipse cx="-62.353829072479584" cy="39.99999999999999" rx="9" ry="4" transform="rotate(-90 -62.353829072479584 39.99999999999999)"/><ellipse cx="62.353829072479584" cy="39.99999999999999" rx="9" ry="4" transform="rotate(90 62.353829072479584 39.99999999999999)"/><ellipse cx="-48.17740365783779" cy="57.506427434372384" rx="9" ry="4" transform="rotate(-108 -48.17740365783779 57.506427434372384)"/><ellipse cx="48.17740365783779" cy="57.506427434372384" rx="9" ry="4" transform="rotate(108 48.17740365783779 57.506427434372384)"/><ellipse cx="-29.285038301457615" cy="69.77527295026727" rx="9" ry="4" transform="rotate(-126 -29.285038301457615 69.77527295026727)"/><ellipse cx="29.285038301457615" cy="69.77527295026727" rx="9" ry="4" transform="rotate(126 29.285038301457615 69.77527295026727)"/><ellipse cx="-7.526049355271049" cy="75.60557646651567" rx="9" ry="4" transform="rotate(-144 -7.526049355271049 75.60557646651567)"/><ellipse cx="7.526049355271049" cy="75.60557646651567" rx="9" ry="4" transform="rotate(144 7.526049355271049 75.60557646651567)"/>
    </g>
    <path d="M-120 104 H120" stroke="#7cc4ff" stroke-opacity="0.5" stroke-dasharray="8 4 2 4"/>
  </g>

  <text x="760" y="88" text-anchor="middle" font-family="Georgia, 'Times New Roman', serif" font-size="16" letter-spacing="5" fill="#7cc4ff" fill-opacity="0.9">BOOK XV &#183; THE BOOK OF THE</text>
  <text x="760" y="150" text-anchor="middle" font-family="Cinzel, 'Trajan Pro', Georgia, 'Times New Roman', serif" font-size="54" letter-spacing="4" fill="url(#gold)" filter="url(#glow)">HELLENES</text>
  <path d="M545 172 H975" stroke="#e8c069" stroke-opacity="0.5"/>
  <circle cx="760" cy="172" r="3" fill="#e8c069"/>
  <text x="760" y="212" text-anchor="middle" font-family="Georgia, 'Times New Roman', serif" font-style="italic" font-size="20" fill="#cfd8ff" fill-opacity="0.85">Ithaca is the first thing he built, still running, which he</text>
  <text x="760" y="240" text-anchor="middle" font-family="Georgia, 'Times New Roman', serif" font-style="italic" font-size="20" fill="#cfd8ff" fill-opacity="0.85">forgot to turn off.</text>
</svg>
